<svg xmlns="http://www.w3.org/2000/svg" xmlns:xlink="http://www.w3.org/1999/xlink" viewBox="0 0 768 578"><defs><style>.a,.b{fill:none;}.b{clip-rule:evenodd;}.c{clip-path:url(#a);}.d{clip-path:url(#b);}.e{isolation:isolate;}.f{clip-path:url(#c);}.g{clip-path:url(#d);}.h{clip-path:url(#f);}.i{clip-path:url(#h);}.j{clip-path:url(#j);}.k{clip-path:url(#l);}.l{clip-path:url(#n);}.m{clip-path:url(#p);}.n{clip-path:url(#r);}.o{clip-path:url(#s);}.p{clip-path:url(#w);}.q{clip-path:url(#x);}.r{clip-path:url(#z);}.s{clip-path:url(#ab);}.t{clip-path:url(#ad);}.u{clip-path:url(#af);}.v{clip-path:url(#ah);}.w{clip-path:url(#ai);}.x{clip-path:url(#ak);}.y{clip-path:url(#am);}.z{clip-path:url(#ao);}.aa{clip-path:url(#aq);}.ab{clip-path:url(#as);}.ac{clip-path:url(#at);}.ad{clip-path:url(#av);}.ae{clip-path:url(#ax);}.af{clip-path:url(#az);}.ag{clip-path:url(#ba);}.ah{clip-path:url(#bc);}.ai{clip-path:url(#be);}.aj{clip-path:url(#bg);}.ak{clip-path:url(#bi);}.al{clip-path:url(#bk);}.am{clip-path:url(#bm);}.an{clip-path:url(#bn);}.ao{clip-path:url(#bp);}.ap{clip-path:url(#br);}.aq{clip-path:url(#bt);}.ar{clip-path:url(#bv);}.as{clip-path:url(#bw);}.at{clip-path:url(#by);}.au{clip-path:url(#ca);}.av{clip-path:url(#cc);}.aw{clip-path:url(#ce);}.ax{clip-path:url(#cf);}.ay{clip-path:url(#ch);}.az{clip-path:url(#cj);}.ba{clip-path:url(#cl);}.bb{clip-path:url(#cn);}.bc{clip-path:url(#cp);}.bd{clip-path:url(#cr);}.be{clip-path:url(#cs);}.bf{clip-path:url(#cu);}.bg{clip-path:url(#cw);}.bh{clip-path:url(#cy);}.bi{clip-path:url(#da);}.bj{clip-path:url(#dc);}.bk{clip-path:url(#de);}.bl{clip-path:url(#df);}.bm{clip-path:url(#dh);}.bn{clip-path:url(#dj);}.bo{clip-path:url(#dn);}.bp{clip-path:url(#do);}.bq{clip-path:url(#dq);}.br{clip-path:url(#ds);}.bs{clip-path:url(#du);}.bt{clip-path:url(#dv);}.bu{clip-path:url(#dz);}.bv{clip-path:url(#ea);}.bw{clip-path:url(#ec);}.bx{clip-path:url(#ee);}.by{clip-path:url(#eg);}.bz{clip-path:url(#ei);}.ca{clip-path:url(#ek);}.cb{clip-path:url(#em);}.cc{clip-path:url(#en);}.cd{clip-path:url(#ep);}.ce{clip-path:url(#er);}.cf{clip-path:url(#et);}.cg{clip-path:url(#ev);}.ch{clip-path:url(#ex);}.ci{clip-path:url(#ez);}.cj{clip-path:url(#fb);}.ck{clip-path:url(#fd);}.cl{clip-path:url(#ff);}.cm{clip-path:url(#fh);}.cn{clip-path:url(#fj);}.co{clip-path:url(#fl);}.cp{clip-path:url(#fn);}.cq{clip-path:url(#fp);}</style><clipPath id="a"><rect class="a" x="238.48" y="448.77" width="79.04" height="78.46"/></clipPath><clipPath id="b"><rect class="a" x="-128.52" y="-134.82" width="1024" height="1024"/></clipPath><clipPath id="c"><rect class="a" x="238.48" y="448.18" width="80" height="80"/></clipPath><clipPath id="d"><path class="b" d="M278,451.91A36.09,36.09,0,1,1,241.64,488,36.27,36.27,0,0,1,278,451.91m0-3.14A39.23,39.23,0,1,0,317.52,488,39.37,39.37,0,0,0,278,448.77"/></clipPath><clipPath id="f"><path class="b" d="M260.15,481.72a1.59,1.59,0,0,1-1.6-1.57V467.6a1.6,1.6,0,0,1,3.2,0v12.55a1.59,1.59,0,0,1-1.6,1.57"/></clipPath><clipPath id="h"><path class="b" d="M282.74,475.53H260.61a1.59,1.59,0,0,1,0-3.18h22.13a1.59,1.59,0,0,1,0,3.18"/></clipPath><clipPath id="j"><path class="b" d="M273.07,489.57a1.58,1.58,0,0,1-.89-.27,1.56,1.56,0,0,1-.42-2.18L281.43,473a1.59,1.59,0,0,1,2.2-.41,1.56,1.56,0,0,1,.42,2.18l-9.67,14.12a1.58,1.58,0,0,1-1.31.69"/></clipPath><clipPath id="l"><path class="b" d="M286.51,505.35l-.23,0L263.42,502a1.58,1.58,0,0,1-1-.61,1.56,1.56,0,0,1-.3-1.16l1.82-12.42a1.58,1.58,0,0,1,1.79-1.33l22.86,3.3a1.59,1.59,0,0,1,1,.61,1.57,1.57,0,0,1,.3,1.16L288.07,504A1.58,1.58,0,0,1,286.51,505.35Zm-21.07-6.2L285.17,502l1.37-9.31-19.73-2.85Z"/></clipPath><clipPath id="n"><path class="b" d="M294.37,504.82l-.23,0-7.62-1.1a1.57,1.57,0,0,1-1.34-1.78l1.34-9.14a1.57,1.57,0,0,1,.62-1,1.59,1.59,0,0,1,1.17-.3l7.62,1.1a1.57,1.57,0,0,1,1.34,1.78l-1.34,9.14a1.57,1.57,0,0,1-.62,1A1.58,1.58,0,0,1,294.37,504.82Zm-5.83-4,4.49.65.88-6-4.49-.65Z"/></clipPath><clipPath id="p"><rect class="a" x="445.48" y="448.77" width="79.04" height="78.46"/></clipPath><clipPath id="r"><rect class="a" x="445.48" y="448.18" width="80" height="80"/></clipPath><clipPath id="s"><path class="b" d="M485,451.91A36.09,36.09,0,1,1,448.64,488,36.27,36.27,0,0,1,485,451.91m0-3.14A39.23,39.23,0,1,0,524.52,488,39.37,39.37,0,0,0,485,448.77"/></clipPath><clipPath id="w"><rect class="a" x="460.48" y="469.18" width="49" height="39"/></clipPath><clipPath id="x"><path class="b" d="M507.82,499.26H462.18a1.57,1.57,0,0,1-1.58-1.57v-26a1.57,1.57,0,0,1,1.58-1.57h45.64a1.58,1.58,0,0,1,1.58,1.57v26A1.58,1.58,0,0,1,507.82,499.26Zm-44.06-3.14h42.48V473.24H463.76Z"/></clipPath><clipPath id="z"><path class="b" d="M493.69,508.12H476.31a1.59,1.59,0,0,1,0-3.18h17.39a1.59,1.59,0,0,1,0,3.18"/></clipPath><clipPath id="ab"><path class="b" d="M485.71,507.61a1.59,1.59,0,0,1-1.6-1.57V499a1.6,1.6,0,0,1,3.2,0V506a1.59,1.59,0,0,1-1.6,1.57"/></clipPath><clipPath id="ad"><path class="b" d="M480.26,493.41c-.27,0-.23-.07-.47-.21-.49-.28-.47-.8-.47-1.36V478.25c0-.56,0-1.08.47-1.36a1.3,1.3,0,0,1,1.42,0L493,483.69a1.53,1.53,0,0,1,.75,1.36,1.59,1.59,0,0,1-.81,1.36l-11.87,6.8A1.63,1.63,0,0,1,480.26,493.41ZM482.51,481v8.15l7.11-4.08Z"/></clipPath><clipPath id="af"><rect class="a" x="40.48" y="316.77" width="79.04" height="78.46"/></clipPath><clipPath id="ah"><rect class="a" x="40.48" y="316.18" width="80" height="80"/></clipPath><clipPath id="ai"><path class="b" d="M80,319.91A36.09,36.09,0,1,1,43.64,356,36.27,36.27,0,0,1,80,319.91m0-3.14A39.23,39.23,0,1,0,119.52,356,39.38,39.38,0,0,0,80,316.77"/></clipPath><clipPath id="ak"><path class="b" d="M68.56,377.71a10.17,10.17,0,0,1-7.11-3.07,10,10,0,0,1,0-14.19,9.78,9.78,0,0,1,9.06-2.77,1.54,1.54,0,0,1,.78,2.61l-.18.18a1.59,1.59,0,0,1-2.1.12,6.69,6.69,0,0,0-5.32,2,7,7,0,0,0,4.87,11.95h0a7,7,0,0,0,4.88-2.14,6.72,6.72,0,0,0,2-5.34,1.6,1.6,0,0,1,.12-2.12l.18-.2a1.6,1.6,0,0,1,1.56-.4,1.57,1.57,0,0,1,1.1,1.17,9.86,9.86,0,0,1-2.75,9.14,10.18,10.18,0,0,1-7.11,3.07Z"/></clipPath><clipPath id="am"><path class="b" d="M76.7,367.57a1.58,1.58,0,0,1-1.12-.46,1.56,1.56,0,0,1,0-2.22l20.73-20.57a3.13,3.13,0,0,0,0-4.44,3.19,3.19,0,0,0-4.48,0L71.11,360.46a1.59,1.59,0,0,1-2.24,0,1.56,1.56,0,0,1,0-2.22L89.6,337.66a6.37,6.37,0,0,1,8.95,0,6.25,6.25,0,0,1,0,8.88L77.82,367.11a1.58,1.58,0,0,1-1.12.46"/></clipPath><clipPath id="ao"><path class="b" d="M68.87,368.68a1.58,1.58,0,0,1-1.12-.46,1.56,1.56,0,0,1,0-2.22l12.85-12.76a1.59,1.59,0,0,1,2.24,0,1.56,1.56,0,0,1,0,2.22L70,368.22a1.58,1.58,0,0,1-1.12.46"/></clipPath><clipPath id="aq"><rect class="a" x="243.48" y="316.77" width="79.04" height="78.46"/></clipPath><clipPath id="as"><rect class="a" x="243.48" y="316.18" width="80" height="80"/></clipPath><clipPath id="at"><path class="b" d="M283,319.91A36.09,36.09,0,1,1,246.64,356,36.27,36.27,0,0,1,283,319.91m0-3.14A39.23,39.23,0,1,0,322.52,356,39.38,39.38,0,0,0,283,316.77"/></clipPath><clipPath id="av"><path class="b" d="M292.25,379a1.59,1.59,0,0,1-.5-.08L283,376l-8.75,2.89a1.59,1.59,0,0,1-1.42-.22,1.57,1.57,0,0,1-.66-1.27v-3.06a1.56,1.56,0,0,1,.46-1.11l5.7-5.66v-9.05l-16.21,8a1.59,1.59,0,0,1-1.54-.07,1.57,1.57,0,0,1-.75-1.34v-3.06a1.56,1.56,0,0,1,.57-1.21l17.93-14.83V340.7c0-3.55,1.22-7.69,4.66-7.69s4.66,4.14,4.66,7.69v5.38l17.93,14.83a1.56,1.56,0,0,1,.57,1.21v3.06a1.57,1.57,0,0,1-.75,1.34,1.59,1.59,0,0,1-1.54.07l-16.21-8v9.05l5.7,5.66a1.56,1.56,0,0,1,.46,1.11v3.06a1.56,1.56,0,0,1-.66,1.27,1.58,1.58,0,0,1-.92.3m-9.25-6.2a1.58,1.58,0,0,1,.5.08l7.17,2.37V375l-5.7-5.66a1.56,1.56,0,0,1-.46-1.11V356a1.57,1.57,0,0,1,.75-1.33,1.6,1.6,0,0,1,1.54-.07l15.56,7.73L285.07,348a1.57,1.57,0,0,1-.57-1.21V340.7c0-1.81-.6-4.55-1.5-4.55s-1.5,2.74-1.5,4.55v6.12a1.57,1.57,0,0,1-.57,1.21l-17.28,14.3,15.56-7.73a1.59,1.59,0,0,1,1.54.07,1.56,1.56,0,0,1,.75,1.33v12.24a1.56,1.56,0,0,1-.46,1.11l-5.7,5.66v.23l7.17-2.37a1.58,1.58,0,0,1,.5-.08"/></clipPath><clipPath id="ax"><rect class="a" x="445.48" y="316.77" width="79.04" height="78.46"/></clipPath><clipPath id="az"><rect class="a" x="445.48" y="316.18" width="80" height="80"/></clipPath><clipPath id="ba"><path class="b" d="M485,319.91A36.09,36.09,0,1,1,448.64,356,36.27,36.27,0,0,1,485,319.91m0-3.14A39.23,39.23,0,1,0,524.52,356,39.38,39.38,0,0,0,485,316.77"/></clipPath><clipPath id="bc"><path class="b" d="M505.55,373.94h-41.1c-.87,0-2.28-.6-2.28-1.47V345c0-.77.92-1.43,1.69-1.55L499.6,338a2.53,2.53,0,0,1,1.64.36c.35.3.92.73.92,1.19v6.28a1.6,1.6,0,0,1-3.2,0v-4.45l-33.6,5v24.4h38.4V351.71H473.93a1.59,1.59,0,0,1,0-3.18h31.62c.87,0,1.42.32,1.42,1.19v22.75a1.36,1.36,0,0,1-1.42,1.47"/></clipPath><clipPath id="be"><path class="b" d="M500,369.18h-5.53a1.59,1.59,0,0,1,0-3.18H500a1.59,1.59,0,0,1,0,3.18"/></clipPath><clipPath id="bg"><path class="b" d="M688,319.34a36.36,36.36,0,1,1-36.36,36.36A36.4,36.4,0,0,1,688,319.34m0-3.16a39.52,39.52,0,1,0,39.52,39.52A39.52,39.52,0,0,0,688,316.18"/></clipPath><clipPath id="bi"><path class="b" d="M694.32,378.18H680.89c-.87,0-1.91-.27-1.91-1.14V365.38H666.66c-.87,0-2.08-.9-2.08-1.78V349.38c0-.87,1.21-1.6,2.08-1.6H679v-7.89a1.6,1.6,0,0,1,3.2,0v9.49c0,.87-.42,1.6-1.29,1.6H667.78v11.2h13.11c.87,0,1.29.55,1.29,1.42V375h11.2V363.61c0-.87.07-1.42.95-1.42h11.85V351H694.32c-.87,0-.95-.73-.95-1.6v-12.8H680.89a1.6,1.6,0,0,1,0-3.2h13.44c.87,0,2.25.9,2.25,1.77v12.63h12c.87,0,.83.72.83,1.6v14.23c0,.87,0,1.78-.83,1.78h-12V377c0,.87-1.38,1.14-2.25,1.14"/></clipPath><clipPath id="bk"><polygon class="b" points="42.48 90 42.48 50.77 121.52 50.77 121.52 90 121.52 129.23 42.48 129.23 42.48 90"/></clipPath><clipPath id="bm"><rect class="a" x="42.48" y="50.18" width="80" height="80"/></clipPath><clipPath id="bn"><path class="b" d="M82,53.91A36.09,36.09,0,1,1,45.64,90,36.27,36.27,0,0,1,82,53.91m0-3.14A39.23,39.23,0,1,0,121.52,90,39.38,39.38,0,0,0,82,50.77"/></clipPath><clipPath id="bp"><path class="b" d="M81.89,120.4h0a1.58,1.58,0,0,1-1.4-.85c-.68-1.3-16.59-32.05-16.59-41.33a18,18,0,0,1,36,0c0,9.28-15.91,40-16.59,41.33a1.58,1.58,0,0,1-1.4.85m0-56.9A14.8,14.8,0,0,0,67.06,78.23c0,6.42,9.68,26.92,14.83,37.14,5.16-10.22,14.84-30.71,14.84-37.14A14.8,14.8,0,0,0,81.89,63.5"/></clipPath><clipPath id="br"><path class="b" d="M81.89,84.16a8.32,8.32,0,1,1,8.38-8.32,8.36,8.36,0,0,1-8.38,8.32m0-13.5a5.18,5.18,0,1,0,5.22,5.18,5.21,5.21,0,0,0-5.22-5.18"/></clipPath><clipPath id="bt"><polygon class="b" points="284 50.77 244.48 50.77 244.48 129.23 284 129.23 323.52 129.23 323.52 50.77 284 50.77"/></clipPath><clipPath id="bv"><rect class="a" x="244.48" y="50.18" width="80" height="80"/></clipPath><clipPath id="bw"><path class="b" d="M284,53.91A36.09,36.09,0,1,1,247.64,90,36.27,36.27,0,0,1,284,53.91m0-3.14A39.23,39.23,0,1,0,323.52,90,39.37,39.37,0,0,0,284,50.77"/></clipPath><clipPath id="by"><path class="b" d="M295,112.32H273c-4.88,0-9-4.46-9-9.54l1.24-25.91a9.18,9.18,0,0,1,9-9l19.6,0a9.17,9.17,0,0,1,9,9.11L304,102.71C304,107.86,299.91,112.32,295,112.32ZM274.2,70.94a6,6,0,0,0-5.83,5.92l-1.24,26c0,3.24,2.73,6.3,5.84,6.3H295c3.11,0,5.83-3.07,5.83-6.38l-1.23-25.62A6.05,6.05,0,0,0,293.8,71h0Z"/></clipPath><clipPath id="ca"><path class="b" d="M283.79,89.79a8.23,8.23,0,0,1-8-7.75V77.45a1.6,1.6,0,0,1,3.2,0V82a5.06,5.06,0,0,0,4.8,4.62,5.12,5.12,0,0,0,4.8-4.73V77.45a1.6,1.6,0,0,1,3.2,0v4.48a8.29,8.29,0,0,1-8,7.87"/></clipPath><clipPath id="cc"><rect class="a" x="446.48" y="50.77" width="79.04" height="78.46"/></clipPath><clipPath id="ce"><rect class="a" x="446.48" y="50.18" width="80" height="80"/></clipPath><clipPath id="cf"><path class="b" d="M486,53.91A36.09,36.09,0,1,1,449.64,90,36.27,36.27,0,0,1,486,53.91m0-3.14A39.23,39.23,0,1,0,525.52,90,39.38,39.38,0,0,0,486,50.77"/></clipPath><clipPath id="ch"><path class="b" d="M494.38,109.29H477.62a1.8,1.8,0,0,1-1.57-1.61l-3.16-26a2.59,2.59,0,0,1,.39-1.63c.3-.34.73-.93,1.18-.93h23.08c.45,0,.88.53,1.18.87a2,2,0,0,1,.39,1.4l-3.16,26.21C495.85,108.38,495.18,109.29,494.38,109.29ZM479,106.12h14l2.78-23.82H476.24Z"/></clipPath><clipPath id="cj"><path class="b" d="M497.93,83.18H474.86a1.58,1.58,0,0,1-1.24-.6,1.56,1.56,0,0,1-.29-1.35l1.77-7.11a1.57,1.57,0,0,1,1.41-1.19L496,71.37a1.58,1.58,0,0,1,1.68,1.25l1.77,8.68a1.55,1.55,0,0,1-.32,1.3A1.58,1.58,0,0,1,497.93,83.18ZM476.88,80H496l-1.11-5.43-17,1.37Z"/></clipPath><clipPath id="cl"><path class="b" d="M501,83.88H470.19a1.59,1.59,0,0,1,0-3.18H501a1.59,1.59,0,0,1,0,3.18"/></clipPath><clipPath id="cn"><path class="b" d="M495,104.22h-.19A9.87,9.87,0,0,1,496,84.53c.44,0,.85,0,1.16.06a1.59,1.59,0,0,1,1.08.58,1.56,1.56,0,0,1,.34,1.17l-2,16.49A1.58,1.58,0,0,1,495,104.22Zm.22-16.5a6.73,6.73,0,0,0-1.58,13Z"/></clipPath><clipPath id="cp"><rect class="a" x="648.48" y="50.77" width="79.04" height="78.46"/></clipPath><clipPath id="cr"><rect class="a" x="648.48" y="50.18" width="80" height="80"/></clipPath><clipPath id="cs"><path class="b" d="M688,53.91A36.09,36.09,0,1,1,651.64,90,36.27,36.27,0,0,1,688,53.91m0-3.14A39.23,39.23,0,1,0,727.52,90,39.37,39.37,0,0,0,688,50.77"/></clipPath><clipPath id="cu"><path class="b" d="M713.29,102.94H661.92a1.59,1.59,0,0,1,0-3.18h51.37a1.59,1.59,0,0,1,0,3.18"/></clipPath><clipPath id="cw"><path class="b" d="M667,98.17a1.85,1.85,0,0,1-1.58-1.81c0-.32,0-.77,0-1.08,0-11.6,8.91-19.17,22.7-19.17s22.69,7.46,22.69,19.07c0,.31,0,.88,0,1.19a1.85,1.85,0,0,1-1.58,1.81h0a1.83,1.83,0,0,1-1.54-1.89c0-.3,0-.72,0-1,0-11.78-10.52-16-19.53-16s-19.54,4.14-19.54,15.93c0,.28,0,.83,0,1.11A1.81,1.81,0,0,1,667,98.17Z"/></clipPath><clipPath id="cy"><path class="b" d="M688.19,78.23a1.59,1.59,0,0,1-1.6-1.57V72a1.6,1.6,0,0,1,3.2,0v4.71a1.59,1.59,0,0,1-1.6,1.57"/></clipPath><clipPath id="da"><path class="b" d="M691.16,72.76h-6.32a1.59,1.59,0,0,1,0-3.18h6.32a1.59,1.59,0,0,1,0,3.18"/></clipPath><clipPath id="dc"><rect class="a" x="648.48" y="182.77" width="79.04" height="78.46"/></clipPath><clipPath id="de"><rect class="a" x="648.48" y="182.18" width="80" height="80"/></clipPath><clipPath id="df"><path class="b" d="M688,185.91A36.09,36.09,0,1,1,651.64,222,36.27,36.27,0,0,1,688,185.91m0-3.14A39.23,39.23,0,1,0,727.52,222,39.38,39.38,0,0,0,688,182.77"/></clipPath><clipPath id="dh"><path class="b" d="M688,225.75a1.59,1.59,0,0,1-.52-.09l-23.12-8a1.56,1.56,0,0,1,0-3l23.12-7.25a1.59,1.59,0,0,1,1,0l23.12,7.25a1.57,1.57,0,0,1,0,3l-23.12,8A1.59,1.59,0,0,1,688,225.75Zm-18.11-9.53,18.11,6.3,18.12-6.3L688,210.53Z"/></clipPath><clipPath id="dj"><path class="b" d="M688.19,236.72a1.62,1.62,0,0,1-.53-.09l-14.27-5.12a1.45,1.45,0,0,1-.9-1.48v-9.6a1.6,1.6,0,0,1,3.2,0v8.5l12.68,4.56L701.14,229l.1-4.9a1.57,1.57,0,1,1,3.13.09l-.18,6a1.57,1.57,0,0,1-1.06,1.44l-14.41,5a1.63,1.63,0,0,1-.52.09"/></clipPath><clipPath id="dn"><rect class="a" x="662.48" y="215.18" width="5" height="10"/></clipPath><clipPath id="do"><rect class="a" x="662.88" y="216.12" width="3.2" height="6.35"/></clipPath><clipPath id="dq"><path class="b" d="M662.59,222.46A2.38,2.38,0,1,0,665,220.1a2.37,2.37,0,0,0-2.38,2.36"/></clipPath><clipPath id="ds"><rect class="a" x="42.48" y="183.77" width="79.04" height="78.46"/></clipPath><clipPath id="du"><rect class="a" x="42.48" y="183.18" width="80" height="80"/></clipPath><clipPath id="dv"><path class="b" d="M82,186.91A36.09,36.09,0,1,1,45.64,223,36.27,36.27,0,0,1,82,186.91m0-3.14A39.23,39.23,0,1,0,121.52,223,39.38,39.38,0,0,0,82,183.77"/></clipPath><clipPath id="dz"><rect class="a" x="59.48" y="204.18" width="45" height="38"/></clipPath><clipPath id="ea"><path class="b" d="M81.51,227.91H64.38a1.58,1.58,0,0,1-1.58-1.57V213a1.57,1.57,0,0,1,1.58-1.57H81.51A1.57,1.57,0,0,1,83.09,213v13.34A1.58,1.58,0,0,1,81.51,227.91ZM66,224.77h14v-10.2H66Z"/></clipPath><clipPath id="ec"><path class="b" d="M100.15,235.07a1.57,1.57,0,0,1-.58-.11l-18.64-7.32a1.57,1.57,0,0,1-1-1.46v-13a1.57,1.57,0,0,1,1-1.46l18.64-7.32a1.59,1.59,0,0,1,1.47.16,1.57,1.57,0,0,1,.69,1.3V233.5a1.57,1.57,0,0,1-.69,1.3A1.6,1.6,0,0,1,100.15,235.07Zm-17.06-10,15.48,6.08v-23l-15.48,6.08Z"/></clipPath><clipPath id="ee"><path class="b" d="M62.24,220.29h-.79a1.59,1.59,0,0,1,0-3.18h.79a1.59,1.59,0,0,1,0,3.18"/></clipPath><clipPath id="eg"><path class="b" d="M102.55,220.29h-.79a1.59,1.59,0,0,1,0-3.18h.79a1.59,1.59,0,0,1,0,3.18"/></clipPath><clipPath id="ei"><path class="b" d="M72.55,241.83a1.59,1.59,0,0,1-1.6-1.57V227.7a1.6,1.6,0,0,1,3.2,0v12.55a1.59,1.59,0,0,1-1.6,1.57"/></clipPath><clipPath id="ek"><rect class="a" x="244.48" y="183.77" width="79.04" height="78.46"/></clipPath><clipPath id="em"><rect class="a" x="244.48" y="183.18" width="80" height="80"/></clipPath><clipPath id="en"><path class="b" d="M284,186.91A36.09,36.09,0,1,1,247.64,223,36.27,36.27,0,0,1,284,186.91m0-3.14A39.23,39.23,0,1,0,323.52,223,39.38,39.38,0,0,0,284,183.77"/></clipPath><clipPath id="ep"><path class="b" d="M262.94,245.89a1.57,1.57,0,1,1,0-3.14,16.24,16.24,0,0,0,3.8-.44,16.54,16.54,0,0,0,5.82-2.59,1.59,1.59,0,0,1,2.2.38,1.56,1.56,0,0,1-.38,2.19,19.65,19.65,0,0,1-6.92,3.07,19.4,19.4,0,0,1-4.52.53"/></clipPath><clipPath id="er"><path class="b" d="M284,245.89a19.88,19.88,0,0,1-11.44-3.6,1.56,1.56,0,0,1-.38-2.19,1.59,1.59,0,0,1,2.2-.38,16.81,16.81,0,0,0,19.25,0,1.59,1.59,0,0,1,2.2.38,1.56,1.56,0,0,1-.38,2.19,19.89,19.89,0,0,1-11.45,3.6"/></clipPath><clipPath id="et"><path class="b" d="M305.06,245.89a20,20,0,0,1-11.44-3.6,1.56,1.56,0,0,1-.39-2.19,1.59,1.59,0,0,1,2.2-.38,16.79,16.79,0,0,0,9.62,3,1.57,1.57,0,1,1,0,3.14"/></clipPath><clipPath id="ev"><path class="b" d="M262.94,250.32a1.57,1.57,0,1,1,0-3.14,16.26,16.26,0,0,0,3.8-.44,16.51,16.51,0,0,0,5.82-2.59,1.59,1.59,0,0,1,2.2.38,1.56,1.56,0,0,1-.38,2.19,19.66,19.66,0,0,1-6.92,3.07,19.42,19.42,0,0,1-4.52.53"/></clipPath><clipPath id="ex"><path class="b" d="M284,250.32a19.88,19.88,0,0,1-11.44-3.6,1.56,1.56,0,0,1-.38-2.19,1.59,1.59,0,0,1,2.2-.38,16.81,16.81,0,0,0,19.25,0,1.59,1.59,0,0,1,2.2.38,1.56,1.56,0,0,1-.38,2.19,19.89,19.89,0,0,1-11.45,3.6"/></clipPath><clipPath id="ez"><path class="b" d="M305.06,250.32a20,20,0,0,1-11.44-3.6,1.56,1.56,0,0,1-.39-2.19,1.59,1.59,0,0,1,2.2-.38,16.79,16.79,0,0,0,9.62,3,1.57,1.57,0,1,1,0,3.14"/></clipPath><clipPath id="fb"><path class="b" d="M300.9,241.2a1.59,1.59,0,0,1-.81-.22,1.56,1.56,0,0,1-.54-2.16c1.61-2.66,2.58-7.77,2.58-11.16,0-.15,0-.31,0-.48-5.94-2.78-15.46-6.8-18.12-6.8s-12.17,4.14-18.12,7c0,.13,0,.26,0,.39,0,3.27.91,8.23,2.59,11a1.56,1.56,0,0,1-.54,2.15,1.59,1.59,0,0,1-2.17-.54c-2-3.29-3-8.84-3-12.63,0-.51,0-1.05.06-1.52a1.57,1.57,0,0,1,.88-1.28c1.62-.79,15.93-7.74,20.36-7.74,4.24,0,17.58,6.21,20,7.37,1.25.24,1.25,1.55,1.25,3,0,3.86-1,9.5-3,12.78a1.58,1.58,0,0,1-1.36.76m2.67-13.49h0"/></clipPath><clipPath id="fd"><path class="b" d="M284.44,236.34a1.59,1.59,0,0,1-1.6-1.57V223a1.6,1.6,0,0,1,3.2,0v11.77a1.59,1.59,0,0,1-1.6,1.57"/></clipPath><clipPath id="ff"><path class="b" d="M300.44,221.43a1.59,1.59,0,0,1-1.6-1.57v-4.4c0-2.06-2.35-3.82-4-3.82H273.23c-1.63,0-3.18,1.8-3.18,3.82v4.4a1.6,1.6,0,0,1-3.2,0v-4.4c0-3.57,2.8-7,6.38-7h21.64c3.53,0,7.17,3.43,7.17,7v4.4a1.59,1.59,0,0,1-1.6,1.57"/></clipPath><clipPath id="fh"><path class="b" d="M294,207.31a1.59,1.59,0,0,1-1.6-1.57v-.64c0-1.42-.51-1.51-.52-1.52a2.26,2.26,0,0,1-.54.12H276.14c-.27,0-1.3-.31-1.3,1.4v.64a1.6,1.6,0,0,1-3.2,0v-.64a4.22,4.22,0,0,1,4.5-4.58h15.23c3,0,4.27,2.37,4.27,4.58v.64a1.59,1.59,0,0,1-1.6,1.57"/></clipPath><clipPath id="fj"><path class="b" d="M486.3,185.34a36.36,36.36,0,1,1-36.09,36.36,36.27,36.27,0,0,1,36.09-36.36m0-3.16a39.52,39.52,0,1,0,39.23,39.52,39.38,39.38,0,0,0-39.23-39.52"/></clipPath><clipPath id="fl"><path class="b" d="M509.83,232.38h-6.17a1.42,1.42,0,0,1-1.57-1.29,3.12,3.12,0,0,0-3.1-2.85,3.08,3.08,0,0,0-3.1,2.8,1.46,1.46,0,0,1-1.57,1.34H477.78a1.42,1.42,0,0,1-1.57-1.29,3.12,3.12,0,0,0-3.1-2.85A3.08,3.08,0,0,0,470,231a1.46,1.46,0,0,1-1.57,1.34h-5.68c-.87,0-1.95-.32-1.95-1.2V216.72a1.83,1.83,0,0,1,.53-1l8-10a1.71,1.71,0,0,1,1.32-.56h39.18a1.72,1.72,0,0,1,1.8,1.5v24.5c0,.87-.93,1.2-1.8,1.2m-4.88-3.2h3.5v-20.8H471.41L464,217.27v11.92h3.17c.82-1.6,3.23-4.42,6-4.42s5.14,2.82,6,4.42h14c.82-1.6,3.23-4.42,6-4.42s5.14,2.82,6,4.42"/></clipPath><clipPath id="fn"><path class="b" d="M473.11,238a6.29,6.29,0,0,1-6.25-6.3c0-1.8,1.32-1.89,1.58-1.89a1.57,1.57,0,0,1,1.57,1.58,1.55,1.55,0,0,1,0,.19s0,.08,0,.11a3.11,3.11,0,1,0,6.22,0s0-.07,0-.11a1.59,1.59,0,0,1,1.56-1.77c.27,0,1.59.09,1.59,1.88a6.29,6.29,0,0,1-6.25,6.31"/></clipPath><clipPath id="fp"><path class="b" d="M499,238a6.29,6.29,0,0,1-6.25-6.3c0-1.8,1.32-1.89,1.58-1.89a1.59,1.59,0,0,1,1.56,1.77s0,.08,0,.11a3.11,3.11,0,1,0,6.22,0s0-.07,0-.11a1.57,1.57,0,0,1,1.56-1.77c.27,0,1.59.09,1.59,1.88A6.29,6.29,0,0,1,499,238"/></clipPath></defs><title>Artboard 1</title><g class="c"><g class="d"><g class="e"><g class="f"><g class="g"><g class="f"><rect x="233.48" y="443.77" width="89.04" height="88.46"/></g></g></g></g></g></g><g class="h"><g class="d"><rect x="253.55" y="461.03" width="13.2" height="25.69"/></g></g><g class="i"><g class="d"><rect x="254.03" y="467.35" width="35.29" height="13.18"/></g></g><g class="j"><g class="d"><rect x="266.49" y="467.3" width="22.84" height="27.26"/></g></g><g class="k"><g class="d"><rect x="257.07" y="481.5" width="37.84" height="28.86"/></g></g><g class="l"><g class="d"><rect x="280.17" y="486.44" width="22.12" height="23.38"/></g></g><g class="m"><g class="d"><g class="e"><g class="n"><g class="o"><g class="n"><rect x="440.48" y="443.77" width="89.04" height="88.46"/></g></g></g></g></g></g><g class="m"><g class="d"><g class="e"><g class="p"><g class="q"><g class="n"><rect x="455.6" y="465.1" width="58.8" height="39.16"/></g></g><g class="r"><g class="n"><rect x="469.73" y="499.94" width="30.55" height="13.18"/></g></g><g class="s"><g class="n"><rect x="479.11" y="492.41" width="13.2" height="20.2"/></g></g><g class="t"><g class="n"><rect x="474.31" y="471.68" width="24.42" height="26.73"/></g></g></g></g></g></g><g class="u"><g class="d"><g class="e"><g class="v"><g class="w"><g class="v"><rect x="35.48" y="311.77" width="89.04" height="88.46"/></g></g></g></g></g></g><g class="x"><g class="d"><rect x="53.51" y="352.45" width="30.14" height="30.26"/></g></g><g class="y"><g class="d"><rect x="63.41" y="330.82" width="41.98" height="41.75"/></g></g><g class="z"><g class="d"><rect x="62.29" y="347.78" width="26.02" height="25.9"/></g></g><g class="aa"><g class="d"><g class="e"><g class="ab"><g class="ac"><g class="ab"><rect x="238.48" y="311.77" width="89.04" height="88.46"/></g></g></g></g></g></g><g class="ad"><g class="d"><rect x="254.84" y="328.01" width="56.32" height="55.98"/></g></g><g class="ae"><g class="d"><g class="e"><g class="af"><g class="ag"><g class="af"><rect x="440.48" y="311.77" width="89.04" height="88.46"/></g></g></g></g></g></g><g class="ah"><g class="d"><rect x="457.17" y="332.95" width="54.8" height="45.99"/></g></g><g class="ai"><g class="d"><rect x="487.9" y="361" width="18.69" height="13.18"/></g></g><g class="aj"><g class="d"><rect x="643.48" y="311.18" width="89.04" height="89.04"/></g></g><g class="ak"><g class="d"><rect x="659.58" y="328.38" width="54.8" height="54.8"/></g></g><g class="al"><g class="d"><g class="e"><g class="am"><g class="an"><g class="am"><rect x="37.48" y="45.77" width="89.04" height="88.46"/></g></g></g></g></g></g><g class="ao"><g class="d"><rect x="58.9" y="55.36" width="45.99" height="70.04"/></g></g><g class="ap"><g class="d"><rect x="68.51" y="62.52" width="26.76" height="26.64"/></g></g><g class="aq"><g class="d"><g class="e"><g class="ar"><g class="as"><g class="ar"><rect x="239.48" y="45.77" width="89.04" height="88.46"/></g></g></g></g></g></g><g class="at"><g class="d"><rect x="258.97" y="62.82" width="50.05" height="54.5"/></g></g><g class="au"><g class="d"><rect x="270.79" y="70.88" width="26" height="23.92"/></g></g><g class="av"><g class="d"><g class="e"><g class="aw"><g class="ax"><g class="aw"><rect x="441.48" y="45.77" width="89.04" height="88.46"/></g></g></g></g></g></g><g class="ay"><g class="d"><rect x="467.88" y="74.12" width="36.24" height="40.18"/></g></g><g class="az"><g class="d"><rect x="468.28" y="66.37" width="36.24" height="21.82"/></g></g><g class="ba"><g class="d"><rect x="463.61" y="75.7" width="43.99" height="13.18"/></g></g><g class="bb"><g class="d"><rect x="481.02" y="79.53" width="22.53" height="29.69"/></g></g><g class="bc"><g class="d"><g class="e"><g class="bd"><g class="be"><g class="bd"><rect x="643.48" y="45.77" width="89.04" height="88.46"/></g></g></g></g></g></g><g class="bf"><g class="d"><rect x="655.34" y="94.76" width="64.54" height="13.18"/></g></g><g class="bg"><g class="d"><rect x="660.37" y="71.11" width="55.39" height="32.06"/></g></g><g class="bh"><g class="d"><rect x="681.59" y="65.38" width="13.2" height="17.85"/></g></g><g class="bi"><g class="d"><rect x="678.26" y="64.59" width="19.48" height="13.18"/></g></g><g class="bj"><g class="d"><g class="e"><g class="bk"><g class="bl"><g class="bk"><rect x="643.48" y="177.77" width="89.04" height="88.46"/></g></g></g></g></g></g><g class="bm"><g class="d"><rect x="658.3" y="202.32" width="59.39" height="28.43"/></g></g><g class="bn"><g class="d"><rect x="667.48" y="213.86" width="41.89" height="27.86"/></g></g><g class="bj"><g class="d"><g class="e"><g class="bo"><g class="bp"><g class="bk"><rect x="657.88" y="211.12" width="13.2" height="16.35"/></g></g><g class="bq"><g class="bk"><rect x="657.59" y="215.1" width="14.76" height="14.72"/></g></g></g></g></g></g><g class="br"><g class="d"><g class="e"><g class="bs"><g class="bt"><g class="bs"><rect x="37.48" y="178.77" width="89.04" height="88.46"/></g></g></g></g></g></g><g class="br"><g class="d"><g class="e"><g class="bu"><g class="bv"><g class="bs"><rect x="57.8" y="206.44" width="30.29" height="26.47"/></g></g><g class="bw"><g class="bs"><rect x="74.93" y="199.27" width="31.8" height="40.8"/></g></g><g class="bx"><g class="bs"><rect x="54.87" y="212.12" width="13.95" height="13.18"/></g></g><g class="by"><g class="bs"><rect x="95.18" y="212.12" width="13.95" height="13.18"/></g></g><g class="bz"><g class="bs"><rect x="65.95" y="221.13" width="13.2" height="25.69"/></g></g></g></g></g></g><g class="ca"><g class="d"><g class="e"><g class="cb"><g class="cc"><g class="cb"><rect x="239.48" y="178.77" width="89.04" height="88.46"/></g></g></g></g></g></g><g class="cd"><g class="d"><rect x="256.36" y="234.44" width="23.69" height="16.45"/></g></g><g class="ce"><g class="d"><rect x="266.89" y="234.44" width="34.23" height="16.45"/></g></g><g class="cf"><g class="d"><rect x="287.95" y="234.44" width="23.69" height="16.45"/></g></g><g class="cg"><g class="d"><rect x="256.36" y="238.87" width="23.69" height="16.45"/></g></g><g class="ch"><g class="d"><rect x="266.89" y="238.87" width="34.23" height="16.45"/></g></g><g class="ci"><g class="d"><rect x="287.95" y="238.87" width="23.69" height="16.45"/></g></g><g class="cj"><g class="d"><rect x="257.71" y="212.24" width="52.58" height="33.96"/></g></g><g class="ck"><g class="d"><rect x="277.84" y="216.43" width="13.2" height="24.91"/></g></g><g class="cl"><g class="d"><rect x="261.84" y="203.46" width="45.2" height="22.97"/></g></g><g class="cm"><g class="d"><rect x="266.64" y="195.52" width="34" height="16.79"/></g></g><g class="cn"><g class="d"><rect x="442.07" y="177.18" width="88.46" height="89.04"/></g></g><g class="co"><g class="d"><rect x="455.81" y="200.18" width="60.82" height="37.2"/></g></g><g class="cp"><g class="d"><rect x="461.86" y="224.86" width="22.5" height="18.19"/></g></g><g class="cq"><g class="d"><rect x="487.75" y="224.86" width="22.5" height="18.19"/></g></g></svg>